<svg width="46" height="37" viewBox="0 0 46 37" fill="none" xmlns="http://www.w3.org/2000/svg">
<path d="M45.6592 11.0293L44.7925 4.9624C44.7353 4.56191 44.3634 4.28389 43.9639 4.34092C43.5634 4.39814 43.2852 4.76914 43.3424 5.16953L43.8255 8.55117C39.0691 3.10156 32.2791 0 25 0C18.3223 0 12.0442 2.60049 7.32227 7.32227C2.60049 12.0442 0 18.3223 0 25C0 28.7488 0.809668 32.3539 2.40635 35.7149C2.53174 35.9789 2.79443 36.1333 3.06846 36.1333C3.17373 36.1333 3.28076 36.1105 3.38223 36.0622C3.74756 35.8887 3.90303 35.4518 3.72949 35.0863C2.22676 31.9233 1.46484 28.5298 1.46484 25C1.46484 18.7135 3.91289 12.8033 8.35811 8.35811C12.8033 3.91289 18.7135 1.46484 25 1.46484C31.9195 1.46484 38.3694 4.44277 42.8531 9.66709L39.9655 8.70459C39.5815 8.57646 39.1669 8.78408 39.0391 9.16787C38.9112 9.55166 39.1185 9.96641 39.5022 10.0943L44.7024 11.8277C44.7782 11.8529 44.8563 11.8653 44.934 11.8653C45.1031 11.8653 45.2697 11.8067 45.4034 11.6952C45.5982 11.5325 45.695 11.2806 45.6592 11.0293Z" fill="#272343"/>
</svg>
