<svg width="18" height="18" viewBox="0 0 18 18" fill="none" xmlns="http://www.w3.org/2000/svg">
<path d="M0.520844 0.979248L2.42751 1.30925L3.31026 11.8262C3.34417 12.24 3.53287 12.6259 3.8387 12.9067C4.14454 13.1876 4.54503 13.3428 4.96026 13.3414H14.9611C15.3587 13.3419 15.7431 13.1987 16.0435 12.9383C16.344 12.678 16.5403 12.3179 16.5964 11.9242L17.4673 5.91275C17.4905 5.75287 17.4819 5.58999 17.4422 5.43341C17.4024 5.27684 17.3321 5.12964 17.2354 5.00023C17.1387 4.87083 17.0174 4.76175 16.8785 4.67925C16.7396 4.59675 16.5858 4.54244 16.4259 4.51941C16.3673 4.513 2.73368 4.50841 2.73368 4.50841" stroke="#272343" stroke-width="1.5" stroke-linecap="round" stroke-linejoin="round"/>
<path d="M10.9479 7.89551H13.4899" stroke="#272343" stroke-width="1.5" stroke-linecap="round" stroke-linejoin="round"/>
<path fill-rule="evenodd" clip-rule="evenodd" d="M4.55786 16.5195C4.62508 16.5166 4.69219 16.5274 4.75515 16.5511C4.81811 16.5748 4.87562 16.6111 4.9242 16.6576C4.97279 16.7042 5.01145 16.7601 5.03787 16.822C5.06428 16.8838 5.0779 16.9504 5.0779 17.0177C5.0779 17.085 5.06428 17.1516 5.03787 17.2135C5.01145 17.2754 4.97279 17.3313 4.9242 17.3778C4.87562 17.4243 4.81811 17.4606 4.75515 17.4843C4.69219 17.5081 4.62508 17.5188 4.55786 17.5159C4.42942 17.5104 4.30808 17.4555 4.21914 17.3627C4.13021 17.2699 4.08057 17.1463 4.08057 17.0177C4.08057 16.8892 4.13021 16.7656 4.21914 16.6727C4.30808 16.5799 4.42942 16.525 4.55786 16.5195Z" fill="#272343" stroke="#272343" stroke-width="1.5" stroke-linecap="round" stroke-linejoin="round"/>
<path fill-rule="evenodd" clip-rule="evenodd" d="M14.8988 16.5195C15.0312 16.5195 15.1583 16.5722 15.252 16.6659C15.3457 16.7595 15.3983 16.8866 15.3983 17.0191C15.3983 17.1516 15.3457 17.2787 15.252 17.3724C15.1583 17.4661 15.0312 17.5187 14.8988 17.5187C14.7663 17.5187 14.6392 17.4661 14.5455 17.3724C14.4518 17.2787 14.3992 17.1516 14.3992 17.0191C14.3992 16.8866 14.4518 16.7595 14.5455 16.6659C14.6392 16.5722 14.7663 16.5195 14.8988 16.5195Z" fill="#272343" stroke="#272343" stroke-width="1.5" stroke-linecap="round" stroke-linejoin="round"/>
</svg>
