<svg width="14" height="14" viewBox="0 0 14 14" fill="none" xmlns="http://www.w3.org/2000/svg">
<path d="M9.66669 3.66667C9.66669 3.48986 9.73692 3.32029 9.86195 3.19526C9.98697 3.07024 10.1565 3 10.3334 3C10.5102 3 10.6797 3.07024 10.8048 3.19526C10.9298 3.32029 11 3.48986 11 3.66667C11 3.84348 10.9298 4.01305 10.8048 4.13807C10.6797 4.2631 10.5102 4.33333 10.3334 4.33333C10.1565 4.33333 9.98697 4.2631 9.86195 4.13807C9.73692 4.01305 9.66669 3.84348 9.66669 3.66667Z" fill="#636270"/>
<path fill-rule="evenodd" clip-rule="evenodd" d="M7.00004 3.8335C6.16019 3.8335 5.35473 4.16713 4.76087 4.76099C4.167 5.35486 3.83337 6.16031 3.83337 7.00016C3.83337 7.84001 4.167 8.64547 4.76087 9.23933C5.35473 9.8332 6.16019 10.1668 7.00004 10.1668C7.83989 10.1668 8.64535 9.8332 9.23921 9.23933C9.83308 8.64547 10.1667 7.84001 10.1667 7.00016C10.1667 6.16031 9.83308 5.35486 9.23921 4.76099C8.64535 4.16713 7.83989 3.8335 7.00004 3.8335ZM4.83337 7.00016C4.83337 6.42553 5.06165 5.87443 5.46798 5.4681C5.87431 5.06177 6.42541 4.8335 7.00004 4.8335C7.57468 4.8335 8.12578 5.06177 8.53211 5.4681C8.93843 5.87443 9.16671 6.42553 9.16671 7.00016C9.16671 7.5748 8.93843 8.1259 8.53211 8.53223C8.12578 8.93856 7.57468 9.16683 7.00004 9.16683C6.42541 9.16683 5.87431 8.93856 5.46798 8.53223C5.06165 8.1259 4.83337 7.5748 4.83337 7.00016Z" fill="#636270"/>
<path fill-rule="evenodd" clip-rule="evenodd" d="M10.5054 0.888771C8.1756 0.630501 5.82444 0.630501 3.49468 0.888771C2.15335 1.03877 1.07002 2.09544 0.912683 3.44344C0.636283 5.80649 0.636283 8.19371 0.912683 10.5568C1.07002 11.9048 2.15268 12.9614 3.49468 13.1114C5.80535 13.3694 8.19468 13.3694 10.5054 13.1114C11.8467 12.9614 12.93 11.9048 13.0874 10.5568C13.3638 8.19372 13.3638 5.80649 13.0874 3.44344C12.93 2.09544 11.8474 1.03877 10.5054 0.888771ZM3.60535 1.8821C5.86155 1.63202 8.13848 1.63202 10.3947 1.8821C11.2813 1.9821 11.9914 2.68144 12.0947 3.5601C12.362 5.84565 12.362 8.15456 12.0947 10.4401C11.9914 11.3188 11.2813 12.0188 10.3947 12.1174C8.13848 12.3675 5.86155 12.3675 3.60535 12.1174C2.71868 12.0188 2.00868 11.3188 1.90535 10.4401C1.63805 8.15456 1.63805 5.84565 1.90535 3.5601C2.00868 2.68144 2.71868 1.98144 3.60535 1.88277V1.8821Z" fill="#636270"/>
</svg>
