<svg width="20" height="19" viewBox="0 0 20 19" fill="none" xmlns="http://www.w3.org/2000/svg">
<path d="M0.75 0.75L2.83 1.11L3.793 12.583C3.82999 13.0345 4.03584 13.4554 4.36948 13.7618C4.70312 14.0682 5.14002 14.2375 5.593 14.236H16.503C16.9367 14.2365 17.3561 14.0803 17.6838 13.7963C18.0116 13.5122 18.2258 13.1194 18.287 12.69L19.237 6.132C19.2623 5.95759 19.253 5.7799 19.2096 5.60909C19.1662 5.43828 19.0896 5.2777 18.9841 5.13653C18.8786 4.99536 18.7463 4.87637 18.5947 4.78637C18.4432 4.69637 18.2754 4.63711 18.101 4.612C18.037 4.605 3.164 4.6 3.164 4.6" stroke="white" stroke-width="1.5" stroke-linecap="round" stroke-linejoin="round"/>
<path d="M12.125 8.29504H14.898" stroke="white" stroke-width="1.5" stroke-linecap="round" stroke-linejoin="round"/>
<path fill-rule="evenodd" clip-rule="evenodd" d="M5.15401 17.703C5.22735 17.6999 5.30056 17.7116 5.36924 17.7375C5.43793 17.7634 5.50066 17.8029 5.55366 17.8537C5.60667 17.9045 5.64885 17.9655 5.67766 18.033C5.70648 18.1005 5.72133 18.1731 5.72133 18.2465C5.72133 18.3199 5.70648 18.3926 5.67766 18.4601C5.64885 18.5276 5.60667 18.5886 5.55366 18.6393C5.50066 18.6901 5.43793 18.7296 5.36924 18.7555C5.30056 18.7814 5.22735 18.7932 5.15401 18.79C5.0139 18.784 4.88152 18.7241 4.78451 18.6228C4.68749 18.5216 4.63333 18.3868 4.63333 18.2465C4.63333 18.1063 4.68749 17.9715 4.78451 17.8702C4.88152 17.7689 5.0139 17.709 5.15401 17.703Z" fill="white" stroke="white" stroke-width="1.5" stroke-linecap="round" stroke-linejoin="round"/>
<path fill-rule="evenodd" clip-rule="evenodd" d="M16.435 17.703C16.5795 17.703 16.7181 17.7604 16.8204 17.8626C16.9226 17.9648 16.98 18.1035 16.98 18.248C16.98 18.3925 16.9226 18.5312 16.8204 18.6334C16.7181 18.7356 16.5795 18.793 16.435 18.793C16.2904 18.793 16.1518 18.7356 16.0496 18.6334C15.9474 18.5312 15.89 18.3925 15.89 18.248C15.89 18.1035 15.9474 17.9648 16.0496 17.8626C16.1518 17.7604 16.2904 17.703 16.435 17.703Z" fill="white" stroke="white" stroke-width="1.5" stroke-linecap="round" stroke-linejoin="round"/>
</svg>
