<svg width="23" height="16" viewBox="0 0 23 16" fill="none" xmlns="http://www.w3.org/2000/svg">
<path d="M22.0205 1.11489C21.5866 0.680322 21.0093 0.441162 20.3951 0.441162C19.7807 0.441162 19.2035 0.680322 18.77 1.1145L9.43434 10.4497L4.33767 5.35346C3.90397 4.91908 3.32663 4.67983 2.71237 4.67983C2.09802 4.67983 1.52087 4.91899 1.08747 5.35297C0.653294 5.78705 0.41394 6.3642 0.41394 6.97826C0.41394 7.59232 0.653099 8.16937 1.08728 8.60326L7.80885 15.3249C8.24274 15.7593 8.81989 15.9986 9.43424 15.9986C10.0486 15.9986 10.6257 15.7594 11.0593 15.3252L22.0199 4.36469C22.4541 3.9308 22.6934 3.35356 22.6934 2.7395C22.6934 2.12544 22.4542 1.54829 22.0205 1.11489ZM20.9841 3.32856L10.0231 14.2896C9.86608 14.4468 9.657 14.5334 9.43424 14.5334C9.21149 14.5334 9.00241 14.4468 8.84508 14.2893L2.12302 7.56713C1.9657 7.4099 1.87898 7.20082 1.87898 6.97816C1.87898 6.75551 1.9657 6.54652 2.12351 6.38861C2.28054 6.23139 2.48972 6.14476 2.71237 6.14476C2.93493 6.14476 3.14402 6.23139 3.30153 6.3889L8.91647 12.0034C9.2025 12.2895 9.66637 12.2894 9.95231 12.0034L19.8063 2.14985C19.9633 1.99262 20.1725 1.906 20.3952 1.906C20.6178 1.906 20.8268 1.99262 20.9844 2.15034C21.1417 2.30756 21.2285 2.51674 21.2285 2.7393C21.2285 2.96186 21.1417 3.17114 20.9841 3.32856Z" fill="#272343"/>
</svg>
