<svg width="11" height="20" viewBox="0 0 11 20" fill="none" xmlns="http://www.w3.org/2000/svg">
<path d="M10.1767 13.1816H9.34351V1.38892C9.34351 0.984424 9.01567 0.656494 8.61108 0.656494C8.20649 0.656494 7.87866 0.984424 7.87866 1.38892V13.1817H1.66538L3.85112 1.52397C3.92573 1.12642 3.66381 0.743603 3.26626 0.669092C2.86909 0.59497 2.48608 0.856396 2.41147 1.25395L0.0630316 13.7792C0.0228948 13.9933 0.080122 14.2142 0.219282 14.3819C0.358442 14.5496 0.564985 14.6465 0.782856 14.6465H7.87866V18.6111C7.87866 19.0155 8.20649 19.3434 8.61108 19.3434C9.01567 19.3434 9.34351 19.0155 9.34351 18.611V14.6464H10.1767C10.5813 14.6464 10.9091 14.3185 10.9091 13.914C10.9091 13.5095 10.5813 13.1816 10.1767 13.1816Z" fill="#272343"/>
</svg>
