<svg width="10" height="20" viewBox="0 0 10 20" fill="none" xmlns="http://www.w3.org/2000/svg">
<path d="M8.96461 17.8787H1.59703C1.89127 15.3152 3.71285 13.5953 5.63179 11.7833C7.63043 9.89624 9.69703 7.94487 9.69703 5.0146C9.69703 2.61157 7.54234 0.656494 4.8939 0.656494C2.24547 0.656494 0.0907784 2.61157 0.0907784 5.0146C0.0907784 5.41909 0.418708 5.74702 0.8232 5.74702C1.22769 5.74702 1.55562 5.41909 1.55562 5.0146C1.55562 3.41929 3.05308 2.12134 4.8939 2.12134C6.73472 2.12134 8.23219 3.41929 8.23219 5.0146C8.23219 7.31343 6.48052 8.96733 4.62613 10.7183C2.50025 12.7255 0.0907784 15.0006 0.0907784 18.6111C0.0907784 19.0156 0.418708 19.3435 0.8232 19.3435H8.96461C9.3691 19.3435 9.69703 19.0156 9.69703 18.6111C9.69703 18.2066 9.3691 17.8787 8.96461 17.8787Z" fill="#272343"/>
</svg>
