<svg width="16" height="12" viewBox="0 0 16 12" fill="none" xmlns="http://www.w3.org/2000/svg">
<path d="M15.8407 2.79983C15.8407 2.79983 15.6843 1.69649 15.203 1.21249C14.5937 0.574826 13.9123 0.571826 13.6 0.53416C11.3627 0.371826 8.00333 0.371826 8.00333 0.371826H7.99667C7.99667 0.371826 4.63767 0.371826 2.4 0.53416C2.08733 0.571826 1.40633 0.574826 0.796667 1.21249C0.316 1.69649 0.162667 2.79983 0.162667 2.79983C0.162667 2.79983 0 4.09649 0 5.39049V6.60283C0 7.89683 0.159333 9.19349 0.159333 9.19349C0.159333 9.19349 0.315667 10.2968 0.793667 10.7812C1.403 11.4185 2.203 11.3968 2.55933 11.4655C3.84067 11.5875 8 11.6248 8 11.6248C8 11.6248 11.3623 11.6185 13.6 11.4592C13.9127 11.4218 14.5937 11.4185 15.2033 10.7812C15.6843 10.2968 15.8407 9.19349 15.8407 9.19349C15.8407 9.19349 16 7.90016 16 6.60316V5.39083C16 4.09716 15.8407 2.80016 15.8407 2.80016V2.79983ZM6.34667 8.07483V3.57816L10.6683 5.83416L6.34667 8.07483Z" fill="#636270"/>
</svg>
