<svg width="18" height="18" viewBox="0 0 18 18" fill="none" xmlns="http://www.w3.org/2000/svg">
<path d="M0.520832 0.979126L2.4275 1.30913L3.31025 11.826C3.34416 12.2399 3.53286 12.6257 3.83869 12.9066C4.14453 13.1875 4.54502 13.3427 4.96025 13.3413H14.9611C15.3587 13.3417 15.743 13.1986 16.0435 12.9382C16.344 12.6778 16.5403 12.3177 16.5964 11.9241L17.4672 5.91263C17.4905 5.75275 17.4819 5.58987 17.4422 5.43329C17.4024 5.27671 17.3321 5.12951 17.2354 5.00011C17.1387 4.8707 17.0174 4.76163 16.8785 4.67913C16.7396 4.59663 16.5858 4.54231 16.4259 4.51929C16.3672 4.51288 2.73367 4.50829 2.73367 4.50829" stroke="#272343" stroke-width="1.5" stroke-linecap="round" stroke-linejoin="round"/>
<path d="M10.9479 7.89539H13.4898" stroke="#272343" stroke-width="1.5" stroke-linecap="round" stroke-linejoin="round"/>
<path fill-rule="evenodd" clip-rule="evenodd" d="M4.55783 16.5194C4.62506 16.5165 4.69217 16.5272 4.75513 16.551C4.81809 16.5747 4.87559 16.611 4.92418 16.6575C4.97277 16.704 5.01143 16.7599 5.03785 16.8218C5.06426 16.8837 5.07788 16.9503 5.07788 17.0176C5.07788 17.0849 5.06426 17.1515 5.03785 17.2133C5.01143 17.2752 4.97277 17.3311 4.92418 17.3777C4.87559 17.4242 4.81809 17.4605 4.75513 17.4842C4.69217 17.5079 4.62506 17.5187 4.55783 17.5158C4.4294 17.5103 4.30805 17.4554 4.21912 17.3626C4.13019 17.2697 4.08054 17.1461 4.08054 17.0176C4.08054 16.889 4.13019 16.7654 4.21912 16.6726C4.30805 16.5798 4.4294 16.5249 4.55783 16.5194Z" fill="#272343" stroke="#272343" stroke-width="1.5" stroke-linecap="round" stroke-linejoin="round"/>
<path fill-rule="evenodd" clip-rule="evenodd" d="M14.8987 16.5194C15.0312 16.5194 15.1583 16.572 15.252 16.6657C15.3457 16.7594 15.3983 16.8865 15.3983 17.019C15.3983 17.1515 15.3457 17.2786 15.252 17.3723C15.1583 17.4659 15.0312 17.5186 14.8987 17.5186C14.7662 17.5186 14.6392 17.4659 14.5455 17.3723C14.4518 17.2786 14.3992 17.1515 14.3992 17.019C14.3992 16.8865 14.4518 16.7594 14.5455 16.6657C14.6392 16.572 14.7662 16.5194 14.8987 16.5194Z" fill="#272343" stroke="#272343" stroke-width="1.5" stroke-linecap="round" stroke-linejoin="round"/>
</svg>
