<svg width="18" height="18" viewBox="0 0 18 18" fill="none" xmlns="http://www.w3.org/2000/svg">
<path d="M0.520844 0.979126L2.42751 1.30913L3.31026 11.826C3.34417 12.2399 3.53287 12.6257 3.8387 12.9066C4.14454 13.1875 4.54503 13.3427 4.96026 13.3413H14.9611C15.3587 13.3417 15.7431 13.1986 16.0435 12.9382C16.344 12.6778 16.5403 12.3177 16.5964 11.9241L17.4673 5.91263C17.4905 5.75275 17.4819 5.58987 17.4422 5.43329C17.4024 5.27671 17.3321 5.12951 17.2354 5.00011C17.1387 4.8707 17.0174 4.76163 16.8785 4.67913C16.7396 4.59663 16.5858 4.54231 16.4259 4.51929C16.3673 4.51288 2.73368 4.50829 2.73368 4.50829" stroke="#272343" stroke-width="1.5" stroke-linecap="round" stroke-linejoin="round"/>
<path d="M10.9479 7.89539H13.4899" stroke="#272343" stroke-width="1.5" stroke-linecap="round" stroke-linejoin="round"/>
<path fill-rule="evenodd" clip-rule="evenodd" d="M4.55786 16.5194C4.62508 16.5165 4.69219 16.5272 4.75515 16.551C4.81811 16.5747 4.87562 16.611 4.9242 16.6575C4.97279 16.704 5.01145 16.7599 5.03787 16.8218C5.06428 16.8837 5.0779 16.9503 5.0779 17.0176C5.0779 17.0849 5.06428 17.1515 5.03787 17.2133C5.01145 17.2752 4.97279 17.3311 4.9242 17.3777C4.87562 17.4242 4.81811 17.4605 4.75515 17.4842C4.69219 17.5079 4.62508 17.5187 4.55786 17.5158C4.42942 17.5103 4.30808 17.4554 4.21914 17.3626C4.13021 17.2697 4.08057 17.1461 4.08057 17.0176C4.08057 16.889 4.13021 16.7654 4.21914 16.6726C4.30808 16.5798 4.42942 16.5249 4.55786 16.5194Z" fill="#272343" stroke="#272343" stroke-width="1.5" stroke-linecap="round" stroke-linejoin="round"/>
<path fill-rule="evenodd" clip-rule="evenodd" d="M14.8988 16.5194C15.0312 16.5194 15.1583 16.572 15.252 16.6657C15.3457 16.7594 15.3983 16.8865 15.3983 17.019C15.3983 17.1515 15.3457 17.2786 15.252 17.3723C15.1583 17.4659 15.0312 17.5186 14.8988 17.5186C14.7663 17.5186 14.6392 17.4659 14.5455 17.3723C14.4518 17.2786 14.3992 17.1515 14.3992 17.019C14.3992 16.8865 14.4518 16.7594 14.5455 16.6657C14.6392 16.572 14.7663 16.5194 14.8988 16.5194Z" fill="#272343" stroke="#272343" stroke-width="1.5" stroke-linecap="round" stroke-linejoin="round"/>
</svg>
