<svg width="14" height="16" viewBox="0 0 14 16" fill="none" xmlns="http://www.w3.org/2000/svg">
<g filter="url(#filter0_d_1_1584)">
<path fill-rule="evenodd" clip-rule="evenodd" d="M2.83003 12.473C2.55303 12.097 2.21503 11.328 1.61403 10.394C1.27403 9.86598 0.429026 8.87098 0.178026 8.36598C-0.0399737 7.91998 -0.0169738 7.71998 0.0350262 7.34998C0.127026 6.69198 0.757026 6.17998 1.42903 6.24798C1.93703 6.29998 2.36803 6.65898 2.75503 6.99798C2.98903 7.20298 3.27703 7.59998 3.45003 7.82398C3.61003 8.02998 3.64903 8.11398 3.81903 8.35798C4.04403 8.67998 4.11403 8.83798 4.02903 8.48498C3.95903 7.96498 3.84503 7.07698 3.68103 6.29198C3.55603 5.69698 3.52503 5.60398 3.40603 5.14698C3.28003 4.66098 3.21603 4.31998 3.09603 3.80498C3.01503 3.43998 2.86603 2.69498 2.82603 2.27498C2.77103 1.70198 2.74203 0.767978 3.08503 0.337978C3.35403 0.00197792 3.97103 -0.100022 4.35403 0.107978C4.85503 0.377978 5.14003 1.15798 5.27003 1.46998C5.50403 2.02998 5.64903 2.67598 5.77503 3.52498C5.93503 4.60498 6.23103 6.10498 6.24103 6.41998C6.26403 6.03398 6.17403 5.21998 6.23703 4.84798C6.29303 4.51198 6.55703 4.12098 6.88803 4.01498C7.16803 3.92598 7.49603 3.89398 7.78403 3.95798C8.09103 4.02498 8.41403 4.25898 8.53403 4.47998C8.88803 5.13398 8.89503 6.46998 8.91003 6.39998C8.99403 6.00498 8.98003 5.11098 9.18803 4.73998C9.32503 4.49398 9.67403 4.27298 9.86003 4.23698C10.147 4.18298 10.5 4.16698 10.803 4.22898C11.047 4.27998 11.376 4.59098 11.465 4.73898C11.679 5.09898 11.8 6.11898 11.836 6.47698C11.851 6.62398 11.909 6.06598 12.123 5.70598C12.52 5.03598 13.926 4.90598 13.98 6.37598C14.004 7.05998 14 7.02898 14 7.48998C14 8.03198 13.988 8.35798 13.96 8.74998C13.93 9.16898 13.846 10.116 13.724 10.575C13.64 10.891 13.361 11.6 13.086 12.025C13.086 12.025 12.035 13.335 11.92 13.925C11.805 14.515 11.843 14.519 11.82 14.937C11.798 15.354 11.939 15.903 11.939 15.903C11.939 15.903 11.154 16.012 10.732 15.94C10.349 15.874 9.87503 15.058 9.75303 14.809C9.58503 14.465 9.22603 14.531 9.08603 14.785C8.86603 15.186 8.39203 15.906 8.05703 15.951C7.40403 16.039 6.04703 15.984 4.98703 15.972C4.98703 15.972 5.16703 14.912 4.76403 14.549C4.46603 14.278 3.95203 13.727 3.64403 13.439L2.83103 12.473H2.83003Z" fill="white"/>
<path fill-rule="evenodd" clip-rule="evenodd" d="M2.83003 12.473C2.55303 12.097 2.21503 11.328 1.61403 10.394C1.27403 9.86598 0.429026 8.87098 0.178026 8.36598C-0.0399737 7.91998 -0.0169738 7.71998 0.0350262 7.34998C0.127026 6.69198 0.757026 6.17998 1.42903 6.24798C1.93703 6.29998 2.36803 6.65898 2.75503 6.99798C2.98903 7.20298 3.27703 7.59998 3.45003 7.82398C3.61003 8.02998 3.64903 8.11398 3.81903 8.35798C4.04403 8.67998 4.11403 8.83798 4.02903 8.48498C3.95903 7.96498 3.84503 7.07698 3.68103 6.29198C3.55603 5.69698 3.52503 5.60398 3.40603 5.14698C3.28003 4.66098 3.21603 4.31998 3.09603 3.80498C3.01503 3.43998 2.86603 2.69498 2.82603 2.27498C2.77103 1.70198 2.74203 0.767978 3.08503 0.337978C3.35403 0.00197792 3.97103 -0.100022 4.35403 0.107978C4.85503 0.377978 5.14003 1.15798 5.27003 1.46998C5.50403 2.02998 5.64903 2.67598 5.77503 3.52498C5.93503 4.60498 6.23103 6.10498 6.24103 6.41998C6.26403 6.03398 6.17403 5.21998 6.23703 4.84798C6.29303 4.51198 6.55703 4.12098 6.88803 4.01498C7.16803 3.92598 7.49603 3.89398 7.78403 3.95798C8.09103 4.02498 8.41403 4.25898 8.53403 4.47998C8.88803 5.13398 8.89503 6.46998 8.91003 6.39998C8.99403 6.00498 8.98003 5.11098 9.18803 4.73998C9.32503 4.49398 9.67403 4.27298 9.86003 4.23698C10.147 4.18298 10.5 4.16698 10.803 4.22898C11.047 4.27998 11.376 4.59098 11.465 4.73898C11.679 5.09898 11.8 6.11898 11.836 6.47698C11.851 6.62398 11.909 6.06598 12.123 5.70598C12.52 5.03598 13.926 4.90598 13.98 6.37598C14.004 7.05998 14 7.02898 14 7.48998C14 8.03198 13.988 8.35798 13.96 8.74998C13.93 9.16898 13.846 10.116 13.724 10.575C13.64 10.891 13.361 11.6 13.086 12.025C13.086 12.025 12.035 13.335 11.92 13.925C11.805 14.515 11.843 14.519 11.82 14.937C11.798 15.354 11.939 15.903 11.939 15.903C11.939 15.903 11.154 16.012 10.732 15.94C10.349 15.874 9.87503 15.058 9.75303 14.809C9.58503 14.465 9.22603 14.531 9.08603 14.785C8.86603 15.186 8.39203 15.906 8.05703 15.951C7.40403 16.039 6.04703 15.984 4.98703 15.972C4.98703 15.972 5.16703 14.912 4.76403 14.549C4.46603 14.278 3.95203 13.727 3.64403 13.439L2.83103 12.473H2.83003Z" stroke="black" stroke-width="0.75" stroke-linecap="round" stroke-linejoin="round"/>
</g>
<path fill-rule="evenodd" clip-rule="evenodd" d="M6.875 9.5C6.875 9.40054 6.83549 9.30516 6.76517 9.23483C6.69484 9.16451 6.59946 9.125 6.5 9.125C6.40054 9.125 6.30516 9.16451 6.23483 9.23483C6.16451 9.30516 6.125 9.40054 6.125 9.5V12.5C6.125 12.5995 6.16451 12.6948 6.23483 12.7652C6.30516 12.8355 6.40054 12.875 6.5 12.875C6.59946 12.875 6.69484 12.8355 6.76517 12.7652C6.83549 12.6948 6.875 12.5995 6.875 12.5V9.5ZM8.5 9.125C8.707 9.125 8.875 9.293 8.875 9.5V12.5C8.875 12.5995 8.83549 12.6948 8.76517 12.7652C8.69484 12.8355 8.59946 12.875 8.5 12.875C8.40054 12.875 8.30516 12.8355 8.23483 12.7652C8.16451 12.6948 8.125 12.5995 8.125 12.5V9.5C8.125 9.293 8.293 9.125 8.5 9.125ZM10.5 9.125C10.707 9.125 10.875 9.293 10.875 9.5V12.5C10.875 12.5995 10.8355 12.6948 10.7652 12.7652C10.6948 12.8355 10.5995 12.875 10.5 12.875C10.4005 12.875 10.3052 12.8355 10.2348 12.7652C10.1645 12.6948 10.125 12.5995 10.125 12.5V9.5C10.125 9.293 10.293 9.125 10.5 9.125Z" fill="black"/>
<defs>
<filter id="filter0_d_1_1584" x="-2.375" y="-1.37476" width="18.7502" height="20.7498" filterUnits="userSpaceOnUse" color-interpolation-filters="sRGB">
<feFlood flood-opacity="0" result="BackgroundImageFix"/>
<feColorMatrix in="SourceAlpha" type="matrix" values="0 0 0 0 0 0 0 0 0 0 0 0 0 0 0 0 0 0 127 0" result="hardAlpha"/>
<feOffset dy="1"/>
<feGaussianBlur stdDeviation="1"/>
<feColorMatrix type="matrix" values="0 0 0 0 0 0 0 0 0 0 0 0 0 0 0 0 0 0 0.24 0"/>
<feBlend mode="normal" in2="BackgroundImageFix" result="effect1_dropShadow_1_1584"/>
<feBlend mode="normal" in="SourceGraphic" in2="effect1_dropShadow_1_1584" result="shape"/>
</filter>
</defs>
</svg>
