<svg width="46" height="37" viewBox="0 0 46 37" fill="none" xmlns="http://www.w3.org/2000/svg">
<path d="M43.5937 1.28515C43.4201 0.919724 42.9829 0.764255 42.6179 0.937888C42.2525 1.11142 42.097 1.54834 42.2705 1.91377C43.7733 5.07695 44.5352 8.4705 44.5352 12.0001C44.5352 18.2866 42.0871 24.1968 37.6419 28.642C33.1968 33.0872 27.2865 35.5353 21 35.5353C17.2718 35.5353 13.7063 34.6892 10.403 33.0205C7.65058 31.6301 5.16395 29.678 3.14481 27.3323L6.03456 28.2956C6.41825 28.4235 6.8331 28.2161 6.96103 27.8323C7.08895 27.4485 6.88153 27.0338 6.49774 26.9059L1.29755 25.1725C1.05673 25.0923 0.79149 25.1423 0.596666 25.305C0.401842 25.4677 0.305064 25.7196 0.340904 25.9709L1.2076 32.0378C1.25985 32.4031 1.57313 32.6667 1.93182 32.6667C1.9663 32.6667 2.00116 32.6643 2.03632 32.6593C2.4368 32.602 2.71503 32.2311 2.6578 31.8307L2.17421 28.4456C4.29325 30.8655 6.88192 32.8829 9.74267 34.328C13.2526 36.1011 17.0401 37.0001 21 37.0001C27.6777 37.0001 33.9559 34.3996 38.6777 29.6778C43.3995 24.9559 46 18.6778 46 12.0001C46 8.25136 45.1904 4.64638 43.5937 1.28515Z" fill="#272343"/>
</svg>
