<svg width="18" height="18" viewBox="0 0 18 18" fill="none" xmlns="http://www.w3.org/2000/svg">
<path d="M0.520813 0.979187L2.42748 1.30919L3.31023 11.8261C3.34414 12.24 3.53284 12.6258 3.83867 12.9067C4.14451 13.1875 4.545 13.3427 4.96023 13.3414H14.9611C15.3586 13.3418 15.743 13.1987 16.0435 12.9383C16.344 12.6779 16.5403 12.3178 16.5964 11.9242L17.4672 5.91269C17.4904 5.75281 17.4819 5.58993 17.4421 5.43335C17.4023 5.27677 17.3321 5.12957 17.2354 5.00017C17.1387 4.87076 17.0174 4.76169 16.8785 4.67919C16.7396 4.59669 16.5858 4.54237 16.4259 4.51935C16.3672 4.51294 2.73365 4.50835 2.73365 4.50835" stroke="#272343" stroke-width="1.5" stroke-linecap="round" stroke-linejoin="round"/>
<path d="M10.9479 7.89545H13.4898" stroke="#272343" stroke-width="1.5" stroke-linecap="round" stroke-linejoin="round"/>
<path fill-rule="evenodd" clip-rule="evenodd" d="M4.5578 16.5194C4.62502 16.5166 4.69213 16.5273 4.75509 16.551C4.81805 16.5748 4.87556 16.611 4.92414 16.6576C4.97273 16.7041 5.01139 16.76 5.03781 16.8219C5.06422 16.8838 5.07784 16.9504 5.07784 17.0177C5.07784 17.0849 5.06422 17.1515 5.03781 17.2134C5.01139 17.2753 4.97273 17.3312 4.92414 17.3777C4.87556 17.4243 4.81805 17.4605 4.75509 17.4843C4.69213 17.508 4.62502 17.5187 4.5578 17.5159C4.42936 17.5104 4.30801 17.4555 4.21908 17.3626C4.13015 17.2698 4.08051 17.1462 4.08051 17.0177C4.08051 16.8891 4.13015 16.7655 4.21908 16.6727C4.30801 16.5799 4.42936 16.525 4.5578 16.5194Z" fill="#272343" stroke="#272343" stroke-width="1.5" stroke-linecap="round" stroke-linejoin="round"/>
<path fill-rule="evenodd" clip-rule="evenodd" d="M14.8988 16.5194C15.0312 16.5194 15.1583 16.572 15.252 16.6657C15.3457 16.7594 15.3983 16.8865 15.3983 17.019C15.3983 17.1515 15.3457 17.2786 15.252 17.3723C15.1583 17.4659 15.0312 17.5186 14.8988 17.5186C14.7663 17.5186 14.6392 17.4659 14.5455 17.3723C14.4518 17.2786 14.3992 17.1515 14.3992 17.019C14.3992 16.8865 14.4518 16.7594 14.5455 16.6657C14.6392 16.572 14.7663 16.5194 14.8988 16.5194Z" fill="#272343" stroke="#272343" stroke-width="1.5" stroke-linecap="round" stroke-linejoin="round"/>
</svg>
