<svg width="14" height="18" viewBox="0 0 14 18" fill="none" xmlns="http://www.w3.org/2000/svg">
<path fill-rule="evenodd" clip-rule="evenodd" d="M6.98626 12.0671C3.44059 12.0671 0.413757 12.6034 0.413757 14.7502C0.413757 16.8971 3.42134 17.4526 6.98626 17.4526C10.531 17.4526 13.5588 16.9154 13.5588 14.7695C13.5588 12.6236 10.5503 12.0671 6.98626 12.0671V12.0671Z" stroke="#272343" stroke-width="1.5" stroke-linecap="round" stroke-linejoin="round"/>
<path fill-rule="evenodd" clip-rule="evenodd" d="M6.98628 9.00559C7.81953 9.00559 8.63407 8.7585 9.3269 8.29557C10.0197 7.83264 10.5597 7.17466 10.8786 6.40484C11.1975 5.63501 11.2809 4.78792 11.1183 3.97068C10.9558 3.15343 10.5545 2.40275 9.96532 1.81355C9.37612 1.22435 8.62544 0.823103 7.8082 0.660543C6.99095 0.497984 6.14386 0.581415 5.37403 0.900287C4.60421 1.21916 3.94623 1.75915 3.4833 2.45197C3.02037 3.1448 2.77328 3.95934 2.77328 4.79259C2.76938 5.9059 3.20785 6.97518 3.99224 7.76524C4.77663 8.55531 5.84272 9.00147 6.95603 9.00559H6.98628Z" stroke="#272343" stroke-width="1.429" stroke-linecap="round" stroke-linejoin="round"/>
</svg>
