<svg width="55" height="19" viewBox="0 0 55 19" fill="none" xmlns="http://www.w3.org/2000/svg">
<path fill-rule="evenodd" clip-rule="evenodd" d="M19.3551 18.1241H23.843L26.6483 0.886384H22.16L19.3551 18.1241ZM11.3011 12.7426L15.5796 0.886384H20.4097L13.2695 18.1246H8.59352L4.69446 3.14854C2.16302 1.62829 0 1.17826 0 1.17826L0.000125848 1.17782C4.20006e-05 1.1778 0 1.17779 0 1.17779L0.0829981 0.885915H7.15627C9.10257 0.885915 9.28517 2.43798 9.28517 2.43798L10.7953 10.19C10.7953 10.19 10.7952 10.1898 10.795 10.1893L10.7953 10.1905L10.7948 10.1895L11.3011 12.7426ZM55 18.1241H50.8792L50.3535 15.5637H44.6483L43.7127 18.1241H39.0344L45.7277 2.17055C45.7277 2.17055 46.1335 0.885923 47.7995 0.885923H51.4071L55 18.1241ZM48.2988 5.57577L45.9408 12.0266H49.6254L48.2988 5.57577ZM40.0258 1.32996L39.3853 5.03167C37.4648 3.97345 33.0941 3.72307 33.0936 5.67214C33.0936 6.44645 34.0825 6.97896 35.2745 7.62079C37.0821 8.59417 39.3567 9.81898 39.3567 12.5199C39.3567 16.8358 34.7365 18.4216 31.6739 18.4216C28.6122 18.4216 26.6082 17.4482 26.6082 17.4482L27.2754 13.5777C29.1129 15.0528 34.6807 15.4719 34.6807 13.1327C34.6807 12.1498 33.5847 11.5701 32.3137 10.898C30.56 9.97051 28.4734 8.86694 28.4734 6.28494C28.4734 1.55175 33.7622 0.578369 35.9893 0.578369C38.0495 0.578369 40.0258 1.32996 40.0258 1.32996Z" fill="#E6A540"/>
</svg>
